<svg width="20" height="21" viewBox="0 0 20 21" fill="none" xmlns="http://www.w3.org/2000/svg">
<path d="M18.3571 8.55357H12.0893V2.28572C12.0893 1.54576 11.4364 0.892858 10.6964 0.892858H9.30357C8.52009 0.892858 7.91071 1.54576 7.91071 2.28572V8.55357H1.64286C0.859375 8.55357 0.25 9.20647 0.25 9.94643V11.3393C0.25 12.1228 0.859375 12.7321 1.64286 12.7321H7.91071V19C7.91071 19.7835 8.52009 20.3929 9.30357 20.3929H10.6964C11.4364 20.3929 12.0893 19.7835 12.0893 19V12.7321H18.3571C19.0971 12.7321 19.75 12.1228 19.75 11.3393V9.94643C19.75 9.20647 19.0971 8.55357 18.3571 8.55357Z" fill="#183B56"/>
</svg>
