<svg width="10" height="8" viewBox="0 0 1024 600" fill="none" xmlns="http://www.w3.org/2000/svg">
<rect width="1024" height="1488" fill="white"/>
<mask id="mask0_3100_49087" style="mask-type:alpha" maskUnits="userSpaceOnUse" x="0" y="0" width="1024" height="1488">
<rect width="1024" height="1488" fill="white"/>
</mask>
<g mask="url(#mask0_3100_49087)">
<path fill-rule="evenodd" clip-rule="evenodd" d="M1024 233H0V81C170.667 127.324 341.333 150.486 512 150.486C682.667 150.486 853.333 127.324 1024 81V233Z" fill="#2B2D31"/>
<rect y="232" width="1024" height="1289" fill="#2B2D31"/>
<path fill-rule="evenodd" clip-rule="evenodd" d="M1024 1488H0V1330C170.667 1378.15 341.333 1402.23 512 1402.23C682.667 1402.23 853.333 1378.15 1024 1330V1488Z" fill="white"/>
<path opacity="0.15" fill-rule="evenodd" clip-rule="evenodd" d="M-40.3801 752.338C214.013 752.338 420.24 546.09 420.24 291.669C420.24 37.2486 214.013 -169 -40.3801 -169C-294.773 -169 -501 37.2486 -501 291.669C-501 546.09 -294.773 752.338 -40.3801 752.338ZM-40.3798 596.969C-208.974 596.969 -345.647 460.281 -345.647 291.669C-345.647 123.056 -208.974 -13.6313 -40.3798 -13.6313C128.215 -13.6313 264.888 123.056 264.888 291.669C264.888 460.281 128.215 596.969 -40.3798 596.969Z" fill="url(#paint0_linear_3100_49087)"/>
</g>
<defs>
<linearGradient id="paint0_linear_3100_49087" x1="420.24" y1="-167.772" x2="-498.544" y2="-167.772" gradientUnits="userSpaceOnUse">
<stop stop-color="white" stop-opacity="0.01"/>
<stop offset="1" stop-color="white"/>
</linearGradient>
</defs>
</svg>
