<svg width="177" height="59" viewBox="0 0 177 59" fill="none" xmlns="http://www.w3.org/2000/svg">
<path d="M55.7463 32.6406L55.7123 30.1751L53.2465 30.1751L35.8771 30.1751L34.0653 30.1751L33.5013 31.8969L31.9875 36.5184L31.3876 36.5194L35.6082 23.723L36.0979 23.723L35.2391 26.7371L34.3316 29.9222L37.6434 29.9222L53.3984 29.9222L55.9322 29.9222L55.8982 27.3887L55.7463 16.06L55.7249 14.4623L54.2658 13.8108L31.6292 3.70275L31.1427 3.4855L30.6098 3.4855L29.0906 3.4855L28.5674 3.4855L28.0882 3.6953L4.99573 13.8033L3.4982 14.4588L3.4982 16.0936L3.4982 27.4222L3.4982 29.9222L5.9982 29.9222L22.6297 29.9222L24.3863 29.9222L24.9817 28.2696L26.5942 23.7938L26.6763 23.7938L24.5653 30.1751L21.305 30.1751L5.9982 30.1751L3.4982 30.1751L3.4982 32.6751L3.4982 43.8529L3.4982 45.4876L4.99573 46.1431L28.0882 56.2511L28.5674 56.4609L29.0906 56.4609L30.6098 56.4609L31.1466 56.4609L31.6361 56.2406L54.4247 45.9817L55.9208 45.3082L55.8982 43.6676L55.7463 32.6406Z" stroke="#FFB94A" stroke-width="5"/>
<path d="M82.721 18.7955V39.7363H78.4206V18.7955H82.721ZM89.1643 18.7955V22.1754H72.078V18.7955H89.1643ZM101.217 18.7955V39.7363H96.9164V18.7955H101.217ZM107.66 18.7955V22.1754H90.5738V18.7955H107.66ZM130.73 36.3708V39.7363H119.583V36.3708H130.73ZM120.993 18.7955V39.7363H116.678V18.7955H120.993ZM129.277 27.3243V30.6035H119.583V27.3243H129.277ZM130.715 18.7955V22.1754H119.583V18.7955H130.715ZM146.708 36.3708V39.7363H136.166V36.3708H146.708ZM137.561 18.7955V39.7363H133.246V18.7955H137.561ZM155.611 39.7363H151.052L151.081 36.3708H155.611C156.743 36.3708 157.697 36.1167 158.473 35.6086C159.25 35.0908 159.835 34.3381 160.228 33.3505C160.631 32.3629 160.832 31.1692 160.832 29.7693V28.7481C160.832 27.6743 160.717 26.7298 160.487 25.9148C160.266 25.0998 159.935 24.4142 159.494 23.8581C159.053 23.302 158.512 22.8849 157.869 22.6068C157.227 22.3192 156.488 22.1754 155.654 22.1754H150.966V18.7955H155.654C157.054 18.7955 158.334 19.0352 159.494 19.5146C160.664 19.9844 161.676 20.6604 162.529 21.5425C163.382 22.4247 164.039 23.4794 164.5 24.7067C164.969 25.9244 165.204 27.2811 165.204 28.7769V29.7693C165.204 31.2555 164.969 32.6122 164.5 33.8395C164.039 35.0668 163.382 36.1215 162.529 37.0037C161.685 37.8762 160.674 38.5522 159.494 39.0316C158.325 39.5014 157.03 39.7363 155.611 39.7363ZM153.497 18.7955V39.7363H149.182V18.7955H153.497Z" fill="white"/>
</svg>
