<svg width="18" height="19" viewBox="0 0 18 19" fill="none" xmlns="http://www.w3.org/2000/svg">
<path d="M7.67188 2.07129C7.28125 2.46191 7.32031 3.04785 7.67188 3.43848L12.3984 7.8916H1.1875C0.640625 7.8916 0.25 8.32129 0.25 8.8291V10.0791C0.25 10.626 0.640625 11.0166 1.1875 11.0166H12.3984L7.67188 15.5088C7.32031 15.8994 7.32031 16.4854 7.67188 16.876L8.53125 17.7354C8.92188 18.0869 9.50781 18.0869 9.85938 17.7354L17.4766 10.1182C17.8281 9.7666 17.8281 9.18066 17.4766 8.79004L9.85938 1.21191C9.50781 0.860352 8.92188 0.860352 8.53125 1.21191L7.67188 2.07129Z" fill="white"/>
</svg>
