<svg width="1024" height="1053" viewBox="0 0 1024 1053" fill="none" xmlns="http://www.w3.org/2000/svg">
<rect width="1024" height="999.869" fill="#2D2B31"/>
<mask id="mask0_3091_48852" style="mask-type:alpha" maskUnits="userSpaceOnUse" x="0" y="0" width="1024" height="1000">
<rect width="1024" height="999.869" fill="white"/>
</mask>
<g mask="url(#mask0_3091_48852)">
<path opacity="0.15" fill-rule="evenodd" clip-rule="evenodd" d="M-226.851 889.31C209.519 889.31 563.267 535.79 563.267 99.7006C563.267 -336.389 209.519 -689.909 -226.851 -689.909C-663.221 -689.909 -1016.97 -336.389 -1016.97 99.7006C-1016.97 535.79 -663.221 889.31 -226.851 889.31ZM-226.852 623C-516.048 623 -750.488 388.711 -750.488 99.7009C-750.488 -189.309 -516.048 -423.599 -226.852 -423.599C62.3445 -423.599 296.784 -189.309 296.784 99.7009C296.784 388.711 62.3445 623 -226.852 623Z" fill="url(#paint0_linear_3091_48852)"/>
<path opacity="0.15" fill-rule="evenodd" clip-rule="evenodd" d="M1141.81 1117.03C1374.38 1117.03 1562.92 928.488 1562.92 695.916C1562.92 463.344 1374.38 274.807 1141.81 274.807C909.231 274.807 720.691 463.344 720.691 695.916C720.691 928.488 909.231 1117.03 1141.81 1117.03ZM1141.9 975.167C987.739 975.167 862.77 850.278 862.77 696.219C862.77 542.161 987.739 417.271 1141.9 417.271C1296.05 417.271 1421.02 542.161 1421.02 696.219C1421.02 850.278 1296.05 975.167 1141.9 975.167Z" fill="url(#paint1_linear_3091_48852)"/>
<path opacity="0.08" fill-rule="evenodd" clip-rule="evenodd" d="M251.916 585.041C255.231 583.127 259.316 583.127 262.631 585.041L298.333 605.639C301.651 607.554 303.696 611.094 303.696 614.925V656.111C303.696 659.943 301.651 663.483 298.333 665.397L262.631 685.996C259.316 687.909 255.231 687.909 251.916 685.996L216.214 665.397C212.896 663.483 210.851 659.943 210.851 656.111V614.925C210.851 611.094 212.896 607.554 216.214 605.639L251.916 585.041Z" fill="white"/>
<g opacity="0.2">
<mask id="mask1_3091_48852" style="mask-type:alpha" maskUnits="userSpaceOnUse" x="204" y="577" width="94" height="105">
<path fill-rule="evenodd" clip-rule="evenodd" d="M245.484 579.327C248.8 577.414 252.884 577.414 256.2 579.327L291.901 599.926C295.219 601.84 297.264 605.38 297.264 609.212V650.397C297.264 654.229 295.219 657.769 291.901 659.683L256.2 680.282C252.884 682.195 248.8 682.195 245.484 680.282L209.783 659.683C206.464 657.769 204.42 654.229 204.42 650.397V609.212C204.42 605.38 206.464 601.84 209.783 599.926L245.484 579.327Z" fill="white"/>
</mask>
<g mask="url(#mask1_3091_48852)">
<path fill-rule="evenodd" clip-rule="evenodd" d="M268.461 540.939L369.916 758.371L370.811 757.954L269.355 540.522L268.461 540.939ZM364.98 758.371L263.525 540.939L264.42 540.522L365.875 757.954L364.98 758.371ZM258.59 540.939L360.045 758.371L360.939 757.954L259.484 540.522L258.59 540.939ZM355.109 758.371L253.654 540.939L254.549 540.522L356.004 757.954L355.109 758.371ZM248.717 540.939L350.172 758.371L351.066 757.954L249.611 540.522L248.717 540.939ZM345.236 758.371L243.781 540.939L244.676 540.522L346.131 757.954L345.236 758.371ZM238.846 540.939L340.301 758.371L341.195 757.954L239.74 540.522L238.846 540.939ZM335.365 758.371L233.91 540.939L234.805 540.522L336.26 757.954L335.365 758.371ZM228.974 540.939L330.43 758.371L331.324 757.954L229.869 540.522L228.974 540.939ZM325.494 758.371L224.039 540.939L224.934 540.522L326.389 757.954L325.494 758.371ZM219.103 540.939L320.558 758.371L321.453 757.954L219.998 540.522L219.103 540.939ZM315.621 758.371L214.166 540.939L215.061 540.522L316.516 757.954L315.621 758.371ZM209.23 540.939L310.685 758.371L311.58 757.954L210.125 540.522L209.23 540.939ZM305.75 758.371L204.295 540.939L205.189 540.522L306.645 757.954L305.75 758.371ZM199.359 540.939L300.814 758.371L301.709 757.954L200.254 540.522L199.359 540.939ZM295.877 758.371L194.422 540.939L195.316 540.522L296.771 757.954L295.877 758.371ZM189.488 540.939L290.943 758.371L291.838 757.954L190.383 540.522L189.488 540.939ZM286.008 758.371L184.553 540.939L185.447 540.522L286.902 757.954L286.008 758.371ZM179.615 540.939L281.07 758.371L281.965 757.954L180.51 540.522L179.615 540.939ZM276.135 758.371L174.679 540.939L175.574 540.522L277.029 757.954L276.135 758.371ZM169.744 540.939L271.199 758.371L272.094 757.954L170.639 540.522L169.744 540.939ZM266.264 758.371L164.808 540.939L165.703 540.522L267.158 757.954L266.264 758.371ZM159.871 540.939L261.326 758.371L262.221 757.954L160.766 540.522L159.871 540.939ZM256.392 758.371L154.937 540.939L155.832 540.522L257.287 757.954L256.392 758.371ZM150.002 540.939L251.457 758.371L252.352 757.954L150.896 540.522L150.002 540.939ZM145.064 540.939L246.519 758.371L247.414 757.954L145.959 540.522L145.064 540.939Z" fill="white"/>
</g>
</g>
<path opacity="0.1" fill-rule="evenodd" clip-rule="evenodd" d="M769.746 509.455C769.746 510.631 768.792 511.585 767.615 511.585C766.438 511.585 765.484 510.631 765.484 509.455C765.484 508.279 766.438 507.325 767.615 507.325C768.792 507.325 769.746 508.279 769.746 509.455ZM767.615 522.94C768.792 522.94 769.746 521.986 769.746 520.81C769.746 519.634 768.792 518.681 767.615 518.681C766.438 518.681 765.484 519.634 765.484 520.81C765.484 521.986 766.438 522.94 767.615 522.94ZM769.746 532.168C769.746 533.344 768.792 534.297 767.615 534.297C766.438 534.297 765.484 533.344 765.484 532.168C765.484 530.992 766.438 530.038 767.615 530.038C768.792 530.038 769.746 530.992 769.746 532.168ZM767.615 545.654C768.792 545.654 769.746 544.7 769.746 543.524C769.746 542.348 768.792 541.395 767.615 541.395C766.438 541.395 765.484 542.348 765.484 543.524C765.484 544.7 766.438 545.654 767.615 545.654ZM769.746 554.882C769.746 556.058 768.792 557.011 767.615 557.011C766.438 557.011 765.484 556.058 765.484 554.882C765.484 553.705 766.438 552.752 767.615 552.752C768.792 552.752 769.746 553.705 769.746 554.882ZM767.615 568.368C768.792 568.368 769.746 567.414 769.746 566.238C769.746 565.062 768.792 564.108 767.615 564.108C766.438 564.108 765.484 565.062 765.484 566.238C765.484 567.414 766.438 568.368 767.615 568.368ZM769.746 577.595C769.746 578.771 768.792 579.724 767.615 579.724C766.438 579.724 765.484 578.771 765.484 577.595C765.484 576.418 766.438 575.465 767.615 575.465C768.792 575.465 769.746 576.418 769.746 577.595ZM699.432 591.081C700.608 591.081 701.562 590.127 701.562 588.951C701.562 587.775 700.608 586.821 699.432 586.821C698.255 586.821 697.301 587.775 697.301 588.951C697.301 590.127 698.255 591.081 699.432 591.081ZM712.928 588.951C712.928 590.127 711.974 591.081 710.797 591.081C709.62 591.081 708.666 590.127 708.666 588.951C708.666 587.775 709.62 586.821 710.797 586.821C711.974 586.821 712.928 587.775 712.928 588.951ZM722.16 591.081C723.337 591.081 724.291 590.127 724.291 588.951C724.291 587.775 723.337 586.821 722.16 586.821C720.983 586.821 720.029 587.775 720.029 588.951C720.029 590.127 720.983 591.081 722.16 591.081ZM735.654 588.951C735.654 590.127 734.7 591.081 733.523 591.081C732.347 591.081 731.393 590.127 731.393 588.951C731.393 587.775 732.347 586.821 733.523 586.821C734.7 586.821 735.654 587.775 735.654 588.951ZM744.887 591.081C746.063 591.081 747.017 590.127 747.017 588.951C747.017 587.775 746.063 586.821 744.887 586.821C743.71 586.821 742.756 587.775 742.756 588.951C742.756 590.127 743.71 591.081 744.887 591.081ZM758.383 588.951C758.383 590.127 757.429 591.081 756.252 591.081C755.075 591.081 754.121 590.127 754.121 588.951C754.121 587.775 755.075 586.821 756.252 586.821C757.429 586.821 758.383 587.775 758.383 588.951ZM769.746 588.951C769.746 590.127 768.792 591.081 767.615 591.081C766.438 591.081 765.484 590.127 765.484 588.951C765.484 587.775 766.438 586.821 767.615 586.821C768.792 586.821 769.746 587.775 769.746 588.951ZM756.252 579.724C757.429 579.724 758.383 578.771 758.383 577.595C758.383 576.418 757.429 575.465 756.252 575.465C755.075 575.465 754.121 576.418 754.121 577.595C754.121 578.771 755.075 579.724 756.252 579.724ZM747.017 577.595C747.017 578.771 746.063 579.724 744.887 579.724C743.71 579.724 742.756 578.771 742.756 577.595C742.756 576.418 743.71 575.465 744.887 575.465C746.063 575.465 747.017 576.418 747.017 577.595ZM733.523 579.724C734.7 579.724 735.654 578.771 735.654 577.595C735.654 576.418 734.7 575.465 733.523 575.465C732.347 575.465 731.393 576.418 731.393 577.595C731.393 578.771 732.347 579.724 733.523 579.724ZM724.291 577.595C724.291 578.771 723.337 579.724 722.16 579.724C720.983 579.724 720.029 578.771 720.029 577.595C720.029 576.418 720.983 575.465 722.16 575.465C723.337 575.465 724.291 576.418 724.291 577.595ZM710.797 579.724C711.974 579.724 712.928 578.771 712.928 577.595C712.928 576.418 711.974 575.465 710.797 575.465C709.62 575.465 708.666 576.418 708.666 577.595C708.666 578.771 709.62 579.724 710.797 579.724ZM701.562 577.595C701.562 578.771 700.608 579.724 699.432 579.724C698.255 579.724 697.301 578.771 697.301 577.595C697.301 576.418 698.255 575.465 699.432 575.465C700.608 575.465 701.562 576.418 701.562 577.595ZM758.383 566.238C758.383 567.414 757.429 568.368 756.252 568.368C755.075 568.368 754.121 567.414 754.121 566.238C754.121 565.062 755.075 564.108 756.252 564.108C757.429 564.108 758.383 565.062 758.383 566.238ZM744.887 568.368C746.063 568.368 747.017 567.414 747.017 566.238C747.017 565.062 746.063 564.108 744.887 564.108C743.71 564.108 742.756 565.062 742.756 566.238C742.756 567.414 743.71 568.368 744.887 568.368ZM735.654 566.238C735.654 567.414 734.7 568.368 733.523 568.368C732.347 568.368 731.393 567.414 731.393 566.238C731.393 565.062 732.347 564.108 733.523 564.108C734.7 564.108 735.654 565.062 735.654 566.238ZM722.16 568.368C723.337 568.368 724.291 567.414 724.291 566.238C724.291 565.062 723.337 564.108 722.16 564.108C720.983 564.108 720.029 565.062 720.029 566.238C720.029 567.414 720.983 568.368 722.16 568.368ZM712.928 566.238C712.928 567.414 711.974 568.368 710.797 568.368C709.62 568.368 708.666 567.414 708.666 566.238C708.666 565.062 709.62 564.108 710.797 564.108C711.974 564.108 712.928 565.062 712.928 566.238ZM699.432 568.368C700.608 568.368 701.562 567.414 701.562 566.238C701.562 565.062 700.608 564.108 699.432 564.108C698.255 564.108 697.301 565.062 697.301 566.238C697.301 567.414 698.255 568.368 699.432 568.368ZM756.252 557.011C757.429 557.011 758.383 556.058 758.383 554.882C758.383 553.705 757.429 552.752 756.252 552.752C755.075 552.752 754.121 553.705 754.121 554.882C754.121 556.058 755.075 557.011 756.252 557.011ZM747.017 554.882C747.017 556.058 746.063 557.011 744.887 557.011C743.71 557.011 742.756 556.058 742.756 554.882C742.756 553.705 743.71 552.752 744.887 552.752C746.063 552.752 747.017 553.705 747.017 554.882ZM733.523 557.011C734.7 557.011 735.654 556.058 735.654 554.882C735.654 553.705 734.7 552.752 733.523 552.752C732.347 552.752 731.393 553.705 731.393 554.882C731.393 556.058 732.347 557.011 733.523 557.011ZM724.291 554.882C724.291 556.058 723.337 557.011 722.16 557.011C720.983 557.011 720.029 556.058 720.029 554.882C720.029 553.705 720.983 552.752 722.16 552.752C723.337 552.752 724.291 553.705 724.291 554.882ZM710.797 557.011C711.974 557.011 712.928 556.058 712.928 554.882C712.928 553.705 711.974 552.752 710.797 552.752C709.62 552.752 708.666 553.705 708.666 554.882C708.666 556.058 709.62 557.011 710.797 557.011ZM701.562 554.882C701.562 556.058 700.608 557.011 699.432 557.011C698.255 557.011 697.301 556.058 697.301 554.882C697.301 553.705 698.255 552.752 699.432 552.752C700.608 552.752 701.562 553.705 701.562 554.882ZM758.383 543.524C758.383 544.7 757.429 545.654 756.252 545.654C755.075 545.654 754.121 544.7 754.121 543.524C754.121 542.348 755.075 541.395 756.252 541.395C757.429 541.395 758.383 542.348 758.383 543.524ZM744.887 545.654C746.063 545.654 747.017 544.7 747.017 543.524C747.017 542.348 746.063 541.395 744.887 541.395C743.71 541.395 742.756 542.348 742.756 543.524C742.756 544.7 743.71 545.654 744.887 545.654ZM735.654 543.524C735.654 544.7 734.7 545.654 733.523 545.654C732.347 545.654 731.393 544.7 731.393 543.524C731.393 542.348 732.347 541.395 733.523 541.395C734.7 541.395 735.654 542.348 735.654 543.524ZM722.16 545.654C723.337 545.654 724.291 544.7 724.291 543.524C724.291 542.348 723.337 541.395 722.16 541.395C720.983 541.395 720.029 542.348 720.029 543.524C720.029 544.7 720.983 545.654 722.16 545.654ZM712.928 543.524C712.928 544.7 711.974 545.654 710.797 545.654C709.62 545.654 708.666 544.7 708.666 543.524C708.666 542.348 709.62 541.395 710.797 541.395C711.974 541.395 712.928 542.348 712.928 543.524ZM699.432 545.654C700.608 545.654 701.562 544.7 701.562 543.524C701.562 542.348 700.608 541.395 699.432 541.395C698.255 541.395 697.301 542.348 697.301 543.524C697.301 544.7 698.255 545.654 699.432 545.654ZM756.252 534.297C757.429 534.297 758.383 533.344 758.383 532.168C758.383 530.992 757.429 530.038 756.252 530.038C755.075 530.038 754.121 530.992 754.121 532.168C754.121 533.344 755.075 534.297 756.252 534.297ZM747.017 532.168C747.017 533.344 746.063 534.297 744.887 534.297C743.71 534.297 742.756 533.344 742.756 532.168C742.756 530.992 743.71 530.038 744.887 530.038C746.063 530.038 747.017 530.992 747.017 532.168ZM733.523 534.297C734.7 534.297 735.654 533.344 735.654 532.168C735.654 530.992 734.7 530.038 733.523 530.038C732.347 530.038 731.393 530.992 731.393 532.168C731.393 533.344 732.347 534.297 733.523 534.297ZM724.291 532.168C724.291 533.344 723.337 534.297 722.16 534.297C720.983 534.297 720.029 533.344 720.029 532.168C720.029 530.992 720.983 530.038 722.16 530.038C723.337 530.038 724.291 530.992 724.291 532.168ZM710.797 534.297C711.974 534.297 712.928 533.344 712.928 532.168C712.928 530.992 711.974 530.038 710.797 530.038C709.62 530.038 708.666 530.992 708.666 532.168C708.666 533.344 709.62 534.297 710.797 534.297ZM701.562 532.168C701.562 533.344 700.608 534.297 699.432 534.297C698.255 534.297 697.301 533.344 697.301 532.168C697.301 530.992 698.255 530.038 699.432 530.038C700.608 530.038 701.562 530.992 701.562 532.168ZM758.383 520.81C758.383 521.986 757.429 522.94 756.252 522.94C755.075 522.94 754.121 521.986 754.121 520.81C754.121 519.634 755.075 518.681 756.252 518.681C757.429 518.681 758.383 519.634 758.383 520.81ZM744.887 522.94C746.063 522.94 747.017 521.986 747.017 520.81C747.017 519.634 746.063 518.681 744.887 518.681C743.71 518.681 742.756 519.634 742.756 520.81C742.756 521.986 743.71 522.94 744.887 522.94ZM735.654 520.81C735.654 521.986 734.7 522.94 733.523 522.94C732.347 522.94 731.393 521.986 731.393 520.81C731.393 519.634 732.347 518.681 733.523 518.681C734.7 518.681 735.654 519.634 735.654 520.81ZM722.16 522.94C723.337 522.94 724.291 521.986 724.291 520.81C724.291 519.634 723.337 518.681 722.16 518.681C720.983 518.681 720.029 519.634 720.029 520.81C720.029 521.986 720.983 522.94 722.16 522.94ZM712.928 520.81C712.928 521.986 711.974 522.94 710.797 522.94C709.62 522.94 708.666 521.986 708.666 520.81C708.666 519.634 709.62 518.681 710.797 518.681C711.974 518.681 712.928 519.634 712.928 520.81ZM699.432 522.94C700.608 522.94 701.562 521.986 701.562 520.81C701.562 519.634 700.608 518.681 699.432 518.681C698.255 518.681 697.301 519.634 697.301 520.81C697.301 521.986 698.255 522.94 699.432 522.94ZM756.252 511.585C757.429 511.585 758.383 510.631 758.383 509.455C758.383 508.279 757.429 507.325 756.252 507.325C755.075 507.325 754.121 508.279 754.121 509.455C754.121 510.631 755.075 511.585 756.252 511.585ZM747.017 509.455C747.017 510.631 746.063 511.585 744.887 511.585C743.71 511.585 742.756 510.631 742.756 509.455C742.756 508.279 743.71 507.325 744.887 507.325C746.063 507.325 747.017 508.279 747.017 509.455ZM733.523 511.585C734.7 511.585 735.654 510.631 735.654 509.455C735.654 508.279 734.7 507.325 733.523 507.325C732.347 507.325 731.393 508.279 731.393 509.455C731.393 510.631 732.347 511.585 733.523 511.585ZM724.291 509.455C724.291 510.631 723.337 511.585 722.16 511.585C720.983 511.585 720.029 510.631 720.029 509.455C720.029 508.279 720.983 507.325 722.16 507.325C723.337 507.325 724.291 508.279 724.291 509.455ZM710.797 511.585C711.974 511.585 712.928 510.631 712.928 509.455C712.928 508.279 711.974 507.325 710.797 507.325C709.62 507.325 708.666 508.279 708.666 509.455C708.666 510.631 709.62 511.585 710.797 511.585ZM701.562 509.455C701.562 510.631 700.608 511.585 699.432 511.585C698.255 511.585 697.301 510.631 697.301 509.455C697.301 508.279 698.255 507.325 699.432 507.325C700.608 507.325 701.562 508.279 701.562 509.455Z" fill="white"/>
</g>
<path fill-rule="evenodd" clip-rule="evenodd" d="M1024 1053H0V928.878C170.667 966.706 341.333 985.619 512 985.619C682.667 985.619 853.333 966.706 1024 928.878V1053Z" fill="white"/>
<defs>
<linearGradient id="paint0_linear_3091_48852" x1="563.267" y1="-687.804" x2="-1012.76" y2="-687.804" gradientUnits="userSpaceOnUse">
<stop stop-color="white" stop-opacity="0.01"/>
<stop offset="1" stop-color="white"/>
</linearGradient>
<linearGradient id="paint1_linear_3091_48852" x1="1563.07" y1="276.435" x2="722.965" y2="276.435" gradientUnits="userSpaceOnUse">
<stop stop-color="white"/>
<stop offset="1" stop-color="white" stop-opacity="0.01"/>
</linearGradient>
</defs>
</svg>
