<svg width="1920" height="1789" viewBox="0 0 1920 1789" fill="none" xmlns="http://www.w3.org/2000/svg">
<rect x="-3" width="1926" height="1789" fill="white"/>
<mask id="mask0_2822_53163" style="mask-type:alpha" maskUnits="userSpaceOnUse" x="-3" y="0" width="1926" height="1789">
<rect x="-3" width="1926" height="1789" fill="white"/>
</mask>
<g mask="url(#mask0_2822_53163)">
<path fill-rule="evenodd" clip-rule="evenodd" d="M1923 233.025H-3V0C318 71.0171 639 106.526 960 106.526C1281 106.526 1602 71.0171 1923 0V233.025Z" fill="#2B2D31"/>
<rect x="-3" y="232.025" width="1926" height="1555.17" fill="#2B2D31"/>
<path fill-rule="evenodd" clip-rule="evenodd" d="M1923 1789.19H-3V1556.17C318 1627.18 639 1662.69 960 1662.69C1281 1662.69 1602 1627.18 1923 1556.17V1789.19Z" fill="white"/>
<path opacity="0.15" fill-rule="evenodd" clip-rule="evenodd" d="M2132.12 2396.43C2568.34 2396.43 2921.96 2042.77 2921.96 1606.5C2921.96 1170.24 2568.34 816.572 2132.12 816.572C1695.9 816.572 1342.27 1170.24 1342.27 1606.5C1342.27 2042.77 1695.9 2396.43 2132.12 2396.43ZM2132.12 2130.01C1843.02 2130.01 1608.66 1895.63 1608.66 1606.5C1608.66 1317.37 1843.02 1082.99 2132.12 1082.99C2421.21 1082.99 2655.57 1317.37 2655.57 1606.5C2655.57 1895.63 2421.21 2130.01 2132.12 2130.01Z" fill="url(#paint0_linear_2822_53163)"/>
<path opacity="0.15" fill-rule="evenodd" clip-rule="evenodd" d="M-61.6067 679.367C374.614 679.367 728.24 325.703 728.24 -110.563C728.24 -546.83 374.614 -900.494 -61.6067 -900.494C-497.827 -900.494 -851.453 -546.83 -851.453 -110.563C-851.453 325.703 -497.827 679.367 -61.6067 679.367ZM-61.6061 412.948C-350.703 412.948 -585.062 178.564 -585.062 -110.564C-585.062 -399.692 -350.703 -634.076 -61.6061 -634.076C227.491 -634.076 461.85 -399.692 461.85 -110.564C461.85 178.564 227.491 412.948 -61.6061 412.948Z" fill="url(#paint1_linear_2822_53163)"/>
</g>
<defs>
<linearGradient id="paint0_linear_2822_53163" x1="2921.96" y1="818.678" x2="1346.48" y2="818.678" gradientUnits="userSpaceOnUse">
<stop stop-color="white"/>
<stop offset="1" stop-color="white" stop-opacity="0.01"/>
</linearGradient>
<linearGradient id="paint1_linear_2822_53163" x1="728.24" y1="-898.388" x2="-847.242" y2="-898.388" gradientUnits="userSpaceOnUse">
<stop stop-color="white" stop-opacity="0.01"/>
<stop offset="1" stop-color="white"/>
</linearGradient>
</defs>
</svg>
