<svg width="27" height="24" viewBox="0 0 27 24" fill="none" xmlns="http://www.w3.org/2000/svg">
<path d="M24.0382 14.3531L26.1779 4.8835C26.3145 4.2006 25.8137 3.5177 25.0853 3.5177H7.23877L6.82902 1.51452C6.69244 1.01372 6.23718 0.603982 5.73638 0.603982H1.09264C0.455268 0.603982 0 1.10478 0 1.69663V2.42506C0 3.06243 0.455268 3.5177 1.09264 3.5177H4.23399L7.4664 19.1789C6.69244 19.6342 6.19165 20.4537 6.19165 21.3642C6.19165 22.7755 7.32982 23.9137 8.74115 23.9137C10.107 23.9137 11.2907 22.7755 11.2907 21.3642C11.2907 20.6813 10.972 20.0439 10.5167 19.5431H20.0318C19.5765 20.0439 19.3034 20.6813 19.3034 21.3642C19.3034 22.7755 20.4415 23.9137 21.8529 23.9137C23.2187 23.9137 24.4024 22.7755 24.4024 21.3642C24.4024 20.3626 23.8105 19.4976 22.9455 19.0879L23.1732 17.9952C23.3553 17.3123 22.8089 16.6294 22.126 16.6294H9.92485L9.60616 15.1726H22.9455C23.4463 15.1726 23.9016 14.8539 24.0382 14.3531Z" fill="#FAAD13"/>
</svg>
