<svg width="133" height="40" viewBox="0 0 133 40" fill="none" xmlns="http://www.w3.org/2000/svg">
<g clip-path="url(#clip0_2822_53474)">
<g filter="url(#filter0_b_2822_53474)">
<path d="M0.666016 5.33333C0.666016 2.38781 2.99602 0 5.87023 0H127.128C130.003 0 132.333 2.38782 132.333 5.33333V34.6667C132.333 37.6122 130.003 40 127.128 40H5.87023C2.99602 40 0.666016 37.6122 0.666016 34.6667V5.33333Z" fill="#333333"/>
</g>
<path d="M30.4208 20.8139C30.4073 18.4695 31.4438 16.7027 33.5369 15.3998C32.3662 13.6811 30.5952 12.7358 28.2606 12.5536C26.0501 12.3748 23.6317 13.8736 22.7462 13.8736C21.8103 13.8736 19.6703 12.6155 17.9865 12.6155C14.5114 12.6705 10.8184 15.4548 10.8184 21.1198C10.8184 22.7939 11.1169 24.523 11.714 26.3036C12.5123 28.648 15.3902 34.392 18.3923 34.2992C19.9621 34.2614 21.0724 33.158 23.1151 33.158C25.0975 33.158 26.1239 34.2992 27.8749 34.2992C30.9038 34.2545 33.5067 29.033 34.2648 26.6817C30.2027 24.7189 30.4208 20.9342 30.4208 20.8139ZM26.8954 10.3295C28.596 8.26016 28.4417 6.37641 28.3914 5.69922C26.8887 5.78859 25.1512 6.74766 24.1617 7.92672C23.0715 9.19172 22.4309 10.7558 22.5684 12.5192C24.1919 12.6464 25.6745 11.7905 26.8954 10.3295Z" fill="white"/>
<path d="M41.8837 11.988H42.7172C43.5222 11.988 43.9938 12.3589 43.9938 12.9839V12.9922C43.9938 13.5714 43.4978 13.9505 42.7416 13.9505C41.9691 13.9505 41.4771 13.638 41.4121 13.0839L41.408 13.0505H40.5176L40.5216 13.1005C40.5826 14.0922 41.4446 14.7672 42.7416 14.7672C43.9979 14.7672 44.9249 14.0255 44.9249 13.0339V13.0255C44.9249 12.2172 44.4411 11.6464 43.6564 11.5464V11.513C44.3069 11.3589 44.746 10.8005 44.746 10.1339V10.1255C44.746 9.19635 43.941 8.55469 42.7619 8.55469C41.534 8.55469 40.7331 9.17552 40.6721 10.1922L40.668 10.2505H41.5422L41.5462 10.1922C41.6153 9.67552 42.0423 9.37135 42.7334 9.37135C43.4368 9.37135 43.8434 9.69219 43.8434 10.2255V10.2339C43.8434 10.8089 43.3921 11.2047 42.6928 11.2047H41.8837V11.988Z" fill="white"/>
<path d="M47.8697 14.7464C48.4389 14.7464 48.9308 14.4464 49.1789 13.9755H49.1992V14.6672H50.0774V11.6464C50.0774 10.7672 49.4147 10.2005 48.3698 10.2005C47.3167 10.2005 46.6784 10.7797 46.6174 11.5339L46.6133 11.5797H47.4428L47.4509 11.5422C47.5241 11.1922 47.8371 10.9464 48.3454 10.9464C48.8902 10.9464 49.1992 11.238 49.1992 11.7214V12.0505L48.0323 12.1214C47.0199 12.1839 46.4426 12.6505 46.4426 13.413V13.4214C46.4426 14.2089 47.0159 14.7464 47.8697 14.7464ZM47.3289 13.4005V13.3922C47.3289 13.0214 47.6217 12.7839 48.1502 12.7505L49.1992 12.6839V13.0255C49.1992 13.5964 48.7276 14.0255 48.1096 14.0255C47.6379 14.0255 47.3289 13.7839 47.3289 13.4005Z" fill="white"/>
<path d="M54.7542 11.0005V10.2839H51.9203V14.6672H52.7986V11.0005H54.7542Z" fill="white"/>
<path d="M56.4061 16.1255H57.2843V13.9297H57.3046C57.5567 14.438 58.0486 14.7547 58.6544 14.7547C59.7278 14.7547 60.4312 13.8755 60.4312 12.4797V12.4755C60.4312 11.0755 59.7319 10.2005 58.6422 10.2005C58.0324 10.2005 57.5607 10.5172 57.3046 11.038H57.2843V10.2839H56.4061V16.1255ZM58.4146 13.9797C57.7518 13.9797 57.2802 13.388 57.2802 12.4797V12.4755C57.2802 11.563 57.7478 10.9714 58.4146 10.9714C59.1057 10.9714 59.5367 11.5422 59.5367 12.4755V12.4797C59.5367 13.4047 59.1057 13.9797 58.4146 13.9797Z" fill="white"/>
<path d="M62.4937 16.1297C63.3312 16.1297 63.7785 15.7797 64.0956 14.8714L65.6894 10.2839H64.7624L63.685 13.8505H63.6565L62.5791 10.2839H61.6277L63.1849 14.6714L63.1117 14.8797C62.9653 15.3047 62.7376 15.4172 62.3229 15.4172C62.205 15.4172 62.1034 15.4005 62.0343 15.3839V16.088C62.14 16.1089 62.3229 16.1297 62.4937 16.1297Z" fill="white"/>
<path d="M68.7074 14.7547C69.7563 14.7547 70.4516 14.2089 70.4516 13.3922V13.3839C70.4516 12.8714 70.1426 12.5214 69.5774 12.4047V12.3714C70.0369 12.263 70.3337 11.8922 70.3337 11.4214V11.413C70.3337 10.663 69.7319 10.2005 68.748 10.2005C67.7844 10.2005 67.1542 10.6672 67.0526 11.4464L67.0485 11.4797H67.8861L67.8901 11.4505C67.9552 11.1172 68.2764 10.913 68.7358 10.913C69.1993 10.913 69.4758 11.1339 69.4758 11.5089V11.5172C69.4758 11.9089 69.2115 12.1089 68.6952 12.1089H68.0812V12.763H68.6992C69.2928 12.763 69.5774 12.963 69.5774 13.3839V13.3922C69.5774 13.7922 69.244 14.038 68.7033 14.038C68.2195 14.038 67.9023 13.8464 67.8048 13.4922L67.7926 13.4505H66.9306L66.9347 13.488C67.0201 14.263 67.7072 14.7547 68.7074 14.7547Z" fill="white"/>
<path d="M72.14 14.6672H73.006L74.9698 11.588H75.0064V14.6672H75.8806V10.2839H75.0145L73.0508 13.3505H73.0101V10.2839H72.14V14.6672Z" fill="white"/>
<path d="M80.9924 10.2839H77.4348V11.0005H78.7725V14.6672H79.6548V11.0005H80.9924V10.2839Z" fill="white"/>
<path d="M84.295 14.7547C85.3317 14.7547 85.9945 14.1214 86.1286 13.4255L86.1408 13.3797H85.3033L85.2911 13.413C85.1813 13.7422 84.8357 14.0172 84.3153 14.0172C83.616 14.0172 83.1728 13.5339 83.1565 12.7047H86.1856V12.4005C86.1856 11.0839 85.4496 10.2005 84.2502 10.2005C83.0508 10.2005 82.2783 11.1172 82.2783 12.488V12.4922C82.2783 13.8755 83.0386 14.7547 84.295 14.7547ZM84.2543 10.938C84.8276 10.938 85.2464 11.3089 85.3155 12.0672H83.1687C83.2501 11.3339 83.6851 10.938 84.2543 10.938Z" fill="white"/>
<path d="M90.465 14.6672H92.4329C93.3599 14.6672 93.9372 14.1755 93.9372 13.4089V13.4005C93.9372 12.863 93.5713 12.4714 93.0184 12.3964V12.363C93.429 12.2839 93.7461 11.8714 93.7461 11.4172V11.4089C93.7461 10.713 93.242 10.2839 92.4085 10.2839H90.465V14.6672ZM91.3351 12.0922V10.9505H92.2255C92.6484 10.9505 92.8761 11.1464 92.8761 11.5089V11.5172C92.8761 11.9047 92.6321 12.0922 92.1361 12.0922H91.3351ZM91.3351 14.0005V12.7464H92.1686C92.746 12.7464 93.0346 12.9422 93.0346 13.363V13.3714C93.0346 13.788 92.7663 14.0005 92.2703 14.0005H91.3351Z" fill="white"/>
<path d="M48.7397 28.9446H47.0169L46.0732 25.8915H42.793L41.8941 28.9446H40.2168L43.4667 18.5506H45.4739L48.7397 28.9446ZM45.7888 24.6106L44.9353 21.8965C44.845 21.6193 44.6759 20.9663 44.4263 19.9385H44.396C44.2966 20.3806 44.1365 21.0335 43.9165 21.8965L43.0783 24.6106H45.7888Z" fill="white"/>
<path d="M57.0973 25.1051C57.0973 26.3797 56.7627 27.3872 56.0936 28.1269C55.4943 28.7853 54.7501 29.1141 53.8618 29.1141C52.9029 29.1141 52.2141 28.7595 51.7946 28.0503H51.7643V31.9984H50.1469V23.9171C50.1469 23.1158 50.1264 22.2934 50.087 21.4498H51.5094L51.5997 22.6378H51.63C52.1694 21.7427 52.9879 21.296 54.0864 21.296C54.9451 21.296 55.662 21.6451 56.2355 22.3441C56.8105 23.0439 57.0973 23.964 57.0973 25.1051ZM55.4496 25.166C55.4496 24.4365 55.2903 23.8351 54.9701 23.3618C54.6204 22.8682 54.1508 22.6214 53.5622 22.6214C53.1631 22.6214 52.8005 22.7589 52.4766 23.0299C52.1519 23.3032 51.9395 23.6602 51.8401 24.1022C51.7901 24.3084 51.765 24.4771 51.765 24.6099V25.8595C51.765 26.4047 51.9274 26.8647 52.2521 27.2404C52.5767 27.6161 52.9985 27.8035 53.5174 27.8035C54.1266 27.8035 54.6007 27.5614 54.9398 27.0787C55.2797 26.5953 55.4496 25.958 55.4496 25.166Z" fill="white"/>
<path d="M65.4703 25.1051C65.4703 26.3797 65.1357 27.3872 64.4659 28.1269C63.8673 28.7853 63.1231 29.1141 62.2348 29.1141C61.2759 29.1141 60.5871 28.7595 60.1684 28.0503H60.138V31.9984H58.5207V23.9171C58.5207 23.1158 58.5002 22.2934 58.4608 21.4498H59.8831L59.9734 22.6378H60.0038C60.5424 21.7427 61.3609 21.296 62.4601 21.296C63.3181 21.296 64.035 21.6451 64.61 22.3441C65.1828 23.0439 65.4703 23.964 65.4703 25.1051ZM63.8226 25.166C63.8226 24.4365 63.6625 23.8351 63.3424 23.3618C62.9927 22.8682 62.5246 22.6214 61.9352 22.6214C61.5354 22.6214 61.1735 22.7589 60.8489 23.0299C60.5242 23.3032 60.3125 23.6602 60.2131 24.1022C60.1638 24.3084 60.138 24.4771 60.138 24.6099V25.8595C60.138 26.4047 60.3004 26.8647 60.6235 27.2404C60.9482 27.6153 61.37 27.8035 61.8904 27.8035C62.4996 27.8035 62.9737 27.5614 63.3128 27.0787C63.6527 26.5953 63.8226 25.958 63.8226 25.166Z" fill="white"/>
<path d="M74.8316 26.0299C74.8316 26.914 74.5335 27.6333 73.9349 28.1887C73.2772 28.7955 72.3616 29.0986 71.185 29.0986C70.0987 29.0986 69.2278 28.883 68.5686 28.4511L68.9433 27.0632C69.6534 27.5052 70.4325 27.7271 71.2813 27.7271C71.8905 27.7271 72.3646 27.5849 72.7052 27.3022C73.0443 27.0194 73.2135 26.6399 73.2135 26.1666C73.2135 25.7448 73.0739 25.3894 72.794 25.1012C72.5156 24.813 72.0506 24.5451 71.4012 24.2976C69.6336 23.6188 68.7506 22.6246 68.7506 21.3171C68.7506 20.4627 69.0601 19.7621 69.6799 19.217C70.2974 18.671 71.1213 18.3984 72.1515 18.3984C73.0701 18.3984 73.8333 18.5632 74.4424 18.892L74.0381 20.2495C73.4691 19.9308 72.8259 19.7715 72.1059 19.7715C71.537 19.7715 71.0924 19.916 70.7738 20.2034C70.5045 20.4604 70.3695 20.7736 70.3695 21.1445C70.3695 21.5554 70.5235 21.8951 70.833 22.1622C71.1023 22.409 71.5916 22.6761 72.3017 22.9643C73.1703 23.3244 73.8083 23.7454 74.2187 24.228C74.6275 24.7092 74.8316 25.3113 74.8316 26.0299Z" fill="white"/>
<path d="M80.1788 22.6996H78.396V26.3385C78.396 27.264 78.7101 27.7264 79.3397 27.7264C79.6288 27.7264 79.8685 27.7006 80.0581 27.649L80.1029 28.9135C79.7843 29.0361 79.3648 29.0978 78.8451 29.0978C78.2064 29.0978 77.7072 28.8971 77.3469 28.4965C76.9881 28.095 76.8075 27.4218 76.8075 26.4759V22.6981H75.7455V21.4484H76.8075V20.0762L78.396 19.5826V21.4484H80.1788V22.6996Z" fill="white"/>
<path d="M88.2223 25.1355C88.2223 26.2876 87.9022 27.2334 87.2635 27.973C86.5936 28.7345 85.7045 29.1141 84.5962 29.1141C83.5281 29.1141 82.6777 28.7494 82.0435 28.0199C81.4093 27.2904 81.0922 26.3696 81.0922 25.2597C81.0922 24.0983 81.4184 23.147 82.0731 22.4074C82.7262 21.667 83.6077 21.2968 84.7161 21.2968C85.7842 21.2968 86.6437 21.6615 87.2923 22.3918C87.9128 23.1002 88.2223 24.0148 88.2223 25.1355ZM86.5443 25.1894C86.5443 24.4982 86.4009 23.9054 86.1104 23.411C85.7713 22.8128 85.2865 22.5144 84.6584 22.5144C84.0083 22.5144 83.5144 22.8135 83.1753 23.411C82.8848 23.9062 82.7414 24.5084 82.7414 25.2207C82.7414 25.9119 82.8848 26.5047 83.1753 26.9983C83.5251 27.5966 84.0136 27.8949 84.644 27.8949C85.2615 27.8949 85.7463 27.5903 86.096 26.9827C86.3941 26.4789 86.5443 25.8799 86.5443 25.1894Z" fill="white"/>
<path d="M93.4794 22.9143C93.3193 22.8838 93.1486 22.8682 92.9696 22.8682C92.4006 22.8682 91.9606 23.0892 91.6511 23.5321C91.3818 23.9226 91.2468 24.4162 91.2468 25.0121V28.9446H89.6302L89.6453 23.8101C89.6453 22.9463 89.6249 22.1598 89.5847 21.4506H90.9934L91.0526 22.8846H91.0973C91.268 22.3918 91.5373 21.995 91.906 21.6974C92.2663 21.4295 92.6555 21.296 93.075 21.296C93.2245 21.296 93.3595 21.3069 93.4794 21.3264V22.9143Z" fill="white"/>
<path d="M100.712 24.8427C100.712 25.141 100.693 25.3925 100.653 25.5979H95.8011C95.82 26.3384 96.0544 26.9046 96.505 27.2951C96.9139 27.6442 97.4427 27.8192 98.092 27.8192C98.8104 27.8192 99.4659 27.7013 100.055 27.4646L100.309 28.6205C99.6199 28.9298 98.8066 29.0837 97.8682 29.0837C96.7394 29.0837 95.8534 28.7416 95.2086 28.0582C94.5653 27.3748 94.2429 26.4571 94.2429 25.3058C94.2429 24.1757 94.5425 23.2346 95.1426 22.484C95.7707 21.6826 96.6196 21.282 97.6877 21.282C98.7369 21.282 99.5311 21.6826 100.07 22.484C100.498 23.1205 100.712 23.9078 100.712 24.8427ZM99.17 24.4108C99.1806 23.9172 99.0752 23.4907 98.856 23.1307C98.576 22.6675 98.1459 22.4363 97.5671 22.4363C97.0383 22.4363 96.6082 22.6621 96.2797 23.1151C96.0104 23.4751 95.8504 23.907 95.8011 24.41H99.17V24.4108Z" fill="white"/>
</g>
<defs>
<filter id="filter0_b_2822_53474" x="-17.334" y="-18" width="167.666" height="76" filterUnits="userSpaceOnUse" color-interpolation-filters="sRGB">
<feFlood flood-opacity="0" result="BackgroundImageFix"/>
<feGaussianBlur in="BackgroundImage" stdDeviation="9"/>
<feComposite in2="SourceAlpha" operator="in" result="effect1_backgroundBlur_2822_53474"/>
<feBlend mode="normal" in="SourceGraphic" in2="effect1_backgroundBlur_2822_53474" result="shape"/>
</filter>
<clipPath id="clip0_2822_53474">
<rect width="131.667" height="40" fill="white" transform="translate(0.666016)"/>
</clipPath>
</defs>
</svg>
