<svg width="16" height="16" viewBox="0 0 16 16" fill="none" xmlns="http://www.w3.org/2000/svg">
<path d="M6.4502 1.32382C6.11616 1.65786 6.14956 2.15892 6.4502 2.49296L10.4921 6.30103H0.905117C0.437459 6.30103 0.103418 6.66847 0.103418 7.10273V8.17166C0.103418 8.63932 0.437459 8.97336 0.905117 8.97336H10.4921L6.4502 12.8148C6.14956 13.1489 6.14956 13.6499 6.4502 13.984L7.18509 14.7189C7.51913 15.0195 8.02019 15.0195 8.32083 14.7189L14.8346 8.20506C15.1353 7.90443 15.1353 7.40336 14.8346 7.06932L8.32083 0.588927C8.02019 0.28829 7.51913 0.28829 7.18509 0.588927L6.4502 1.32382Z" fill="#1470C6"/>
</svg>
