<svg width="79" height="79" viewBox="0 0 79 79" fill="none" xmlns="http://www.w3.org/2000/svg">
<g clip-path="url(#clip0_2822_53435)">
<g opacity="0.06">
<rect width="78.1756" height="78.069" rx="19.5462" fill="#FFBB00"/>
</g>
<path fill-rule="evenodd" clip-rule="evenodd" d="M49.4112 56.1305C51.8076 57.1935 52.7063 54.9663 52.7063 54.9663L59.0469 22.6728C58.9969 20.4962 56.1012 21.8123 56.1012 21.8123L20.6039 35.9344C20.6039 35.9344 18.9065 36.5418 19.0562 37.6047C19.206 38.6677 20.554 39.1739 20.554 39.1739L29.4907 42.2109C29.4907 42.2109 32.1867 51.1701 32.7359 52.891C33.2352 54.5614 33.6845 54.612 33.6845 54.612C34.1838 54.8145 34.6331 54.4602 34.6331 54.4602L40.4245 49.1454L49.4112 56.1305ZM50.9579 28.3921C50.9579 28.3921 52.206 27.6329 52.1561 28.3921C52.1561 28.3921 52.3558 28.4934 51.7068 29.202C51.1077 29.8094 36.9786 42.6661 35.0814 44.3871C34.9317 44.4883 34.8318 44.6401 34.8318 44.8426L34.2826 49.6006C34.1828 50.1068 33.5337 50.1574 33.384 49.7018L31.0374 41.9068C30.9376 41.6031 31.0374 41.2488 31.337 41.0464L50.9579 28.3921Z" fill="#FFBB00"/>
</g>
<defs>
<clipPath id="clip0_2822_53435">
<rect width="78.1756" height="78.069" fill="white"/>
</clipPath>
</defs>
</svg>
