<svg width="80" height="79" viewBox="0 0 80 79" fill="none" xmlns="http://www.w3.org/2000/svg">
<g clip-path="url(#clip0_2822_53413)">
<g opacity="0.06">
<rect x="0.925781" width="78.1756" height="78.069" rx="19.5462" fill="#FFBB00"/>
</g>
<path d="M39.9665 29.0634C34.4691 29.0634 30.0884 33.53 30.0884 38.9415C30.0884 44.4389 34.4691 48.8196 39.9665 48.8196C45.3779 48.8196 49.8446 44.4389 49.8446 38.9415C49.8446 33.53 45.3779 29.0634 39.9665 29.0634ZM39.9665 45.3837C36.4447 45.3837 33.5243 42.5492 33.5243 38.9415C33.5243 35.4198 36.3588 32.5852 39.9665 32.5852C43.4882 32.5852 46.3228 35.4198 46.3228 38.9415C46.3228 42.5492 43.4882 45.3837 39.9665 45.3837ZM52.5073 28.7199C52.5073 27.4314 51.4766 26.4007 50.1881 26.4007C48.8997 26.4007 47.8689 27.4314 47.8689 28.7199C47.8689 30.0083 48.8997 31.0391 50.1881 31.0391C51.4766 31.0391 52.5073 30.0083 52.5073 28.7199ZM59.0355 31.0391C58.8637 27.9468 58.1765 25.1981 55.9432 22.9648C53.7099 20.7315 50.9612 20.0443 47.8689 19.8725C44.6908 19.7007 35.1563 19.7007 31.9781 19.8725C28.8859 20.0443 26.2231 20.7315 23.9039 22.9648C21.6706 25.1981 20.9834 27.9468 20.8116 31.0391C20.6398 34.2172 20.6398 43.7517 20.8116 46.9299C20.9834 50.0221 21.6706 52.6849 23.9039 55.0041C26.2231 57.2374 28.8859 57.9246 31.9781 58.0964C35.1563 58.2682 44.6908 58.2682 47.8689 58.0964C50.9612 57.9246 53.7099 57.2374 55.9432 55.0041C58.1765 52.6849 58.8637 50.0221 59.0355 46.9299C59.2072 43.7517 59.2072 34.2172 59.0355 31.0391ZM54.9124 50.2798C54.3112 51.9977 52.9368 53.2862 51.3048 53.9734C48.7279 55.0041 42.7152 54.7464 39.9665 54.7464C37.1319 54.7464 31.1192 55.0041 28.6282 53.9734C26.9103 53.2862 25.6218 51.9977 24.9346 50.2798C23.9039 47.7888 24.1616 41.7761 24.1616 38.9415C24.1616 36.1928 23.9039 30.1801 24.9346 27.6032C25.6218 25.9712 26.9103 24.6827 28.6282 23.9956C31.1192 22.9648 37.1319 23.2225 39.9665 23.2225C42.7152 23.2225 48.7279 22.9648 51.3048 23.9956C52.9368 24.5968 54.2253 25.9712 54.9124 27.6032C55.9432 30.1801 55.6855 36.1928 55.6855 38.9415C55.6855 41.7761 55.9432 47.7888 54.9124 50.2798Z" fill="#FFBB00"/>
</g>
<defs>
<clipPath id="clip0_2822_53413">
<rect width="78.1756" height="78.069" fill="white" transform="translate(0.925781)"/>
</clipPath>
</defs>
</svg>
