<svg width="79" height="79" viewBox="0 0 79 79" fill="none" xmlns="http://www.w3.org/2000/svg">
<g clip-path="url(#clip0_2822_53449)">
<g opacity="0.06">
<rect x="0.675781" width="78.1756" height="78.069" rx="19.5462" fill="#FFBB00"/>
</g>
<path d="M62.1387 27.6891C61.6233 25.6276 59.9913 23.9956 58.0157 23.4802C54.3221 22.4494 39.7198 22.4494 39.7198 22.4494C39.7198 22.4494 25.0315 22.4494 21.338 23.4802C19.3623 23.9956 17.7303 25.6276 17.2149 27.6891C16.1842 31.2967 16.1842 39.0274 16.1842 39.0274C16.1842 39.0274 16.1842 46.6722 17.2149 50.3657C17.7303 52.4272 19.3623 53.9734 21.338 54.4887C25.0315 55.4336 39.7198 55.4336 39.7198 55.4336C39.7198 55.4336 54.3221 55.4336 58.0157 54.4887C59.9913 53.9734 61.6233 52.4272 62.1387 50.3657C63.1694 46.6722 63.1694 39.0274 63.1694 39.0274C63.1694 39.0274 63.1694 31.2967 62.1387 27.6891ZM34.9096 45.985V32.0698L47.1068 39.0274L34.9096 45.985Z" fill="#FFB94A"/>
</g>
<defs>
<clipPath id="clip0_2822_53449">
<rect width="78.1756" height="78.069" fill="white" transform="translate(0.675781)"/>
</clipPath>
</defs>
</svg>
