<svg width="132" height="40" viewBox="0 0 132 40" fill="none" xmlns="http://www.w3.org/2000/svg">
<g clip-path="url(#clip0_2822_53464)">
<g filter="url(#filter0_b_2822_53464)">
<path d="M0 5.33333C0 2.38781 2.33001 0 5.20422 0H126.462C129.337 0 131.667 2.38782 131.667 5.33333V34.6667C131.667 37.6122 129.337 40 126.462 40H5.20422C2.33001 40 0 37.6122 0 34.6667V5.33333Z" fill="#333333"/>
</g>
<path d="M66.7137 21.7313C64.3706 21.7313 62.4347 23.6066 62.4347 26.1777C62.4347 28.7279 64.3503 30.6242 66.7139 30.6242C69.0774 30.6242 70.9928 28.7489 70.9928 26.1777C70.9928 23.6066 69.0774 21.7313 66.7137 21.7313ZM66.7137 28.8548C65.4297 28.8548 64.3097 27.7376 64.3097 26.1579C64.3097 24.5563 65.4306 23.461 66.7137 23.461C67.9968 23.461 69.1177 24.5563 69.1177 26.1579C69.1177 27.7376 67.9968 28.8548 66.7137 28.8548ZM57.4018 21.7313C55.0381 21.7313 53.1225 23.6066 53.1225 26.1777C53.1225 28.7279 55.0381 30.6242 57.4018 30.6242C59.7652 30.6242 61.6808 28.7489 61.6808 26.1777C61.6808 23.6066 59.7652 21.7313 57.4015 21.7313H57.4018ZM57.4018 28.8548C56.1175 28.8548 54.9978 27.7376 54.9978 26.1579C54.9978 24.5563 56.1187 23.461 57.4018 23.461C58.6858 23.461 59.8058 24.5563 59.8058 26.1579C59.8058 27.7376 58.705 28.8548 57.4018 28.8548ZM46.3373 23.1012V24.9765H50.6567C50.534 26.0301 50.1886 26.8097 49.6788 27.337C49.0474 27.99 48.0693 28.7069 46.3373 28.7069C43.6675 28.7069 41.6102 26.4733 41.6102 23.7125C41.6102 20.9516 43.6687 18.6758 46.3373 18.6758C47.7835 18.6758 48.8234 19.266 49.5976 20.025L50.8807 18.6968C49.8004 17.6225 48.3542 16.8008 46.3373 16.8008C42.6894 16.8008 39.6328 19.8981 39.6328 23.6705C39.6328 27.4431 42.6894 30.5404 46.3373 30.5404C48.3136 30.5404 49.7812 29.8664 50.9628 28.6012C52.1649 27.358 52.5317 25.6085 52.5317 24.1968C52.5317 23.7545 52.4913 23.3539 52.4295 23.0165L46.3373 23.1012ZM91.6137 24.5551C91.267 23.5646 90.1673 21.7313 87.9659 21.7313C85.7647 21.7313 83.9515 23.5228 83.9515 26.1777C83.9515 28.664 85.7647 30.6242 88.1698 30.6242C90.1258 30.6242 91.2467 29.3809 91.715 28.664L90.2688 27.6526C89.7793 28.3906 89.1276 28.8747 88.1698 28.8747C87.212 28.8747 86.54 28.4323 86.1114 27.5257L91.7962 25.0605L91.6137 24.5551ZM85.8265 26.052C85.7861 24.3445 87.1107 23.4598 88.0471 23.4598C88.8012 23.4598 89.4125 23.8391 89.6363 24.4084L85.8265 26.052ZM81.201 30.3295H83.076V17.3059H81.201V30.3295ZM78.1452 22.7219H78.0843C77.6566 22.1946 76.8621 21.7313 75.8425 21.7313C73.7029 21.7313 71.7672 23.6915 71.7672 26.1777C71.7672 28.664 73.7232 30.6034 75.8425 30.6034C76.861 30.6034 77.6557 30.1398 78.0843 29.5916H78.1452V30.2238C78.1452 31.9313 77.2684 32.8368 75.8628 32.8368C74.7216 32.8368 74.0081 31.9731 73.7232 31.2562L72.0936 31.9731C72.5617 33.1533 73.8053 34.6073 75.8628 34.6073C78.0631 34.6073 79.9178 33.2583 79.9178 29.9922V22.005H78.1452V22.7219ZM76.0056 28.8548C74.7216 28.8548 73.6422 27.7376 73.6422 26.1789C73.6422 24.6202 74.7225 23.4817 76.0056 23.4817C77.2695 23.4817 78.288 24.6202 78.288 26.1789C78.2871 27.7166 77.2684 28.8548 76.0056 28.8548ZM100.355 17.3061H95.8725V30.3295H97.7475V25.3978H100.355C102.434 25.3978 104.471 23.838 104.471 21.352C104.471 18.8657 102.434 17.3059 100.355 17.3059V17.3061ZM100.416 23.5867H97.7667V19.1181H100.416C101.801 19.1181 102.616 20.3194 102.616 21.3517C102.597 22.3633 101.803 23.5867 100.416 23.5867ZM111.95 21.7103C110.605 21.7103 109.199 22.3215 108.628 23.7125L110.279 24.4294C110.646 23.7125 111.298 23.4808 111.991 23.4808C112.969 23.4808 113.947 24.0918 113.968 25.1662V25.2931C113.621 25.0824 112.909 24.7868 112.012 24.7868C110.219 24.7868 108.404 25.8194 108.404 27.7166C108.404 29.4658 109.872 30.5824 111.502 30.5824C112.765 30.5824 113.458 29.9922 113.886 29.2972H113.946V30.3087H115.759V25.3138C115.739 23.0172 114.089 21.7101 111.95 21.7101V21.7103ZM111.726 28.8338C111.114 28.8338 110.258 28.5172 110.258 27.7385C110.258 26.7269 111.317 26.3476 112.234 26.3476C113.049 26.3476 113.437 26.5372 113.946 26.7899C113.804 27.9911 112.805 28.8338 111.726 28.8338ZM122.301 22.0061L120.161 27.6326H120.1L117.88 22.0059H115.863L119.204 29.8872L117.309 34.2918H119.265L124.379 22.0059H122.301L122.301 22.0061ZM105.511 30.3295H107.386V17.3059H105.511V30.3295Z" fill="white"/>
<path d="M45.3001 11.2018V13.1357H44.5205V12.0008H40.9358V13.1357H40.1562V11.2018H40.7391C40.9334 10.9231 41.0767 10.5224 41.169 9.99969C41.2613 9.47205 41.3074 8.8996 41.3074 8.28236V6.65462H44.7245V11.2018H45.3001ZM43.9085 11.2018V7.45356H42.1162V8.42422C42.1162 8.98173 42.0724 9.49942 41.985 9.97729C41.9024 10.4552 41.7761 10.8633 41.6061 11.2018H43.9085Z" fill="white"/>
<path d="M48.6082 12.1202C48.103 12.1202 47.644 11.9983 47.2311 11.7544C46.8183 11.5055 46.4928 11.167 46.2548 10.7389C46.0217 10.3108 45.9051 9.8404 45.9051 9.32769C45.9051 8.81498 46.0217 8.34707 46.2548 7.92396C46.4928 7.49587 46.8183 7.15738 47.2311 6.90849C47.644 6.6596 48.103 6.53516 48.6082 6.53516C49.1133 6.53516 49.5699 6.6596 49.9779 6.90849C50.3908 7.15738 50.7162 7.49587 50.9542 7.92396C51.1922 8.34707 51.3112 8.81498 51.3112 9.32769C51.3112 9.8404 51.1922 10.3108 50.9542 10.7389C50.7211 11.167 50.3981 11.5055 49.9852 11.7544C49.5723 11.9983 49.1133 12.1202 48.6082 12.1202ZM48.6082 11.3213C48.953 11.3213 49.2688 11.2367 49.5553 11.0674C49.8419 10.8982 50.0678 10.6642 50.2329 10.3656C50.3981 10.0619 50.4807 9.71596 50.4807 9.32769C50.4807 8.93942 50.3981 8.59596 50.2329 8.29729C50.0678 7.99365 49.8419 7.7572 49.5553 7.58796C49.2688 7.41871 48.953 7.33409 48.6082 7.33409C48.2633 7.33409 47.9476 7.41871 47.661 7.58796C47.3744 7.7572 47.1461 7.99365 46.9761 8.29729C46.811 8.59596 46.7284 8.93942 46.7284 9.32769C46.7284 9.71596 46.811 10.0619 46.9761 10.3656C47.1461 10.6642 47.3744 10.8982 47.661 11.0674C47.9476 11.2367 48.2633 11.3213 48.6082 11.3213Z" fill="white"/>
<path d="M54.6352 12.1202C54.1301 12.1202 53.6686 11.9983 53.2509 11.7544C52.8332 11.5104 52.5053 11.1744 52.2673 10.7464C52.0293 10.3183 51.9103 9.84538 51.9103 9.32769C51.9103 8.81 52.0293 8.33711 52.2673 7.90902C52.5053 7.48093 52.8332 7.14493 53.2509 6.90102C53.6686 6.65711 54.1301 6.53516 54.6352 6.53516C55.0287 6.53516 55.3857 6.60982 55.7062 6.75916C56.0317 6.90849 56.3183 7.12502 56.566 7.40876L55.9831 7.98369C55.8034 7.76467 55.6042 7.60289 55.3857 7.49836C55.1671 7.38885 54.9169 7.33409 54.6352 7.33409C54.2855 7.33409 53.9649 7.41622 53.6735 7.58049C53.3869 7.74476 53.1586 7.97871 52.9886 8.28236C52.8186 8.58102 52.7336 8.92947 52.7336 9.32769C52.7336 9.72591 52.8186 10.0768 52.9886 10.3805C53.1586 10.6792 53.3869 10.9106 53.6735 11.0749C53.9649 11.2392 54.2855 11.3213 54.6352 11.3213C55.2181 11.3213 55.7135 11.0724 56.1215 10.5746L56.7117 11.157C56.4591 11.4607 56.1555 11.6971 55.801 11.8664C55.4464 12.0356 55.0578 12.1202 54.6352 12.1202Z" fill="white"/>
<path d="M58.6792 7.45356H57.2221V6.65462H60.9524V7.45356H59.4953V12.0008H58.6792V7.45356Z" fill="white"/>
<path d="M62.3035 12.1202C62.1237 12.1202 61.9707 12.0879 61.8444 12.0232V11.2093C62.0047 11.2989 62.1504 11.3437 62.2816 11.3437C62.4127 11.3437 62.5172 11.3188 62.5949 11.269C62.6726 11.2143 62.743 11.1147 62.8062 10.9704L62.9883 10.5821L61.2543 6.65462H62.165L63.3818 9.61889H63.4255L64.6495 6.65462H65.5603L63.5639 11.1496C63.4182 11.4831 63.2409 11.7295 63.032 11.8888C62.828 12.0431 62.5852 12.1202 62.3035 12.1202Z" fill="white"/>
<path d="M66.2677 6.65462H70.1511V12.0008H69.335V7.45356H67.0837V12.0008H66.2677V6.65462Z" fill="white"/>
<path d="M71.3408 6.65462H72.1568V8.87222H74.5757V6.65462H75.3844V12.0008H74.5757V9.66369H72.1568V12.0008H71.3408V6.65462Z" fill="white"/>
<path d="M78.9471 12.1202C78.442 12.1202 77.983 11.9983 77.5701 11.7544C77.1572 11.5055 76.8318 11.167 76.5938 10.7389C76.3606 10.3108 76.2441 9.8404 76.2441 9.32769C76.2441 8.81498 76.3606 8.34707 76.5938 7.92396C76.8318 7.49587 77.1572 7.15738 77.5701 6.90849C77.983 6.6596 78.442 6.53516 78.9471 6.53516C79.4523 6.53516 79.9089 6.6596 80.3169 6.90849C80.7297 7.15738 81.0552 7.49587 81.2932 7.92396C81.5312 8.34707 81.6502 8.81498 81.6502 9.32769C81.6502 9.8404 81.5312 10.3108 81.2932 10.7389C81.06 11.167 80.737 11.5055 80.3242 11.7544C79.9113 11.9983 79.4523 12.1202 78.9471 12.1202ZM78.9471 11.3213C79.292 11.3213 79.6077 11.2367 79.8943 11.0674C80.1809 10.8982 80.4067 10.6642 80.5719 10.3656C80.737 10.0619 80.8196 9.71596 80.8196 9.32769C80.8196 8.93942 80.737 8.59596 80.5719 8.29729C80.4067 7.99365 80.1809 7.7572 79.8943 7.58796C79.6077 7.41871 79.292 7.33409 78.9471 7.33409C78.6023 7.33409 78.2865 7.41871 78 7.58796C77.7134 7.7572 77.4851 7.99365 77.3151 8.29729C77.1499 8.59596 77.0674 8.93942 77.0674 9.32769C77.0674 9.71596 77.1499 10.0619 77.3151 10.3656C77.4851 10.6642 77.7134 10.8982 78 11.0674C78.2865 11.2367 78.6023 11.3213 78.9471 11.3213Z" fill="white"/>
<path d="M84.2903 6.65462H86.2502C86.5271 6.65462 86.7821 6.71685 87.0152 6.84129C87.2532 6.96573 87.4427 7.13747 87.5835 7.35649C87.7244 7.57551 87.7948 7.81693 87.7948 8.08076C87.7948 8.34458 87.7293 8.57356 87.5981 8.76769C87.4718 8.96182 87.3042 9.10867 87.0954 9.20822V9.25302C87.3577 9.3476 87.569 9.5044 87.7293 9.72342C87.8944 9.94245 87.977 10.1988 87.977 10.4925C87.977 10.7862 87.9017 11.0475 87.7511 11.2765C87.6054 11.5055 87.4062 11.6847 87.1537 11.8141C86.9059 11.9385 86.6339 12.0008 86.3377 12.0008H84.2903V6.65462ZM86.2138 8.89462C86.4469 8.89462 86.6339 8.81996 86.7748 8.67062C86.9205 8.52129 86.9934 8.34956 86.9934 8.15542C86.9934 7.96129 86.923 7.79205 86.7821 7.64769C86.6461 7.49836 86.4664 7.42369 86.2429 7.42369H85.1063V8.89462H86.2138ZM86.3377 11.2242C86.5854 11.2242 86.7821 11.1446 86.9278 10.9853C87.0784 10.826 87.1537 10.6418 87.1537 10.4328C87.1537 10.2187 87.076 10.0345 86.9205 9.88022C86.7699 9.72093 86.5659 9.64129 86.3085 9.64129H85.1063V11.2242H86.3377Z" fill="white"/>
<path fill-rule="evenodd" clip-rule="evenodd" d="M29.053 23.454L25.7662 20.0527L29.056 16.6289L28.8142 16.3966C31.2522 17.786 33.0729 18.8183 33.4484 19.0217C34.773 19.7585 34.0999 20.7071 33.4484 21.0656C33.3074 21.1381 32.1319 21.8066 30.3879 22.7982L30.3864 22.7991C30.1057 22.9587 29.8104 23.1268 29.5023 23.3021C29.2723 23.4329 29.0353 23.5678 28.792 23.7063L29.053 23.454ZM26.4248 25.0513L23.6862 22.2174L14.4449 31.835C17.4617 30.1295 22.3588 27.3596 26.4248 25.0513ZM9.65644 32.4885C9.63814 32.3555 9.62891 32.2142 9.62891 32.0662V8.14641C9.62891 7.98632 9.64062 7.83946 9.6625 7.70519L21.6001 20.0586L9.65644 32.4885ZM14.3812 8.27106L23.6801 17.8939L26.4089 15.0539C23.7648 13.5619 17.8703 10.236 14.3812 8.27106Z" fill="white"/>
</g>
<defs>
<filter id="filter0_b_2822_53464" x="-18" y="-18" width="167.666" height="76" filterUnits="userSpaceOnUse" color-interpolation-filters="sRGB">
<feFlood flood-opacity="0" result="BackgroundImageFix"/>
<feGaussianBlur in="BackgroundImage" stdDeviation="9"/>
<feComposite in2="SourceAlpha" operator="in" result="effect1_backgroundBlur_2822_53464"/>
<feBlend mode="normal" in="SourceGraphic" in2="effect1_backgroundBlur_2822_53464" result="shape"/>
</filter>
<clipPath id="clip0_2822_53464">
<rect width="131.667" height="40" fill="white"/>
</clipPath>
</defs>
</svg>
