<svg width="24" height="24" viewBox="0 0 24 24" fill="none" xmlns="http://www.w3.org/2000/svg">
<path fill-rule="evenodd" clip-rule="evenodd" d="M16.939 3C18.28 3 19.57 3.53 20.519 4.481C21.469 5.43 22 6.71 22 8.05V15.95C22 18.74 19.73 21 16.939 21H7.06C4.269 21 2 18.74 2 15.95V8.05C2 5.26 4.259 3 7.06 3H16.939ZM18.5319 9.54033L18.6119 9.46033C18.8509 9.17033 18.8509 8.75033 18.6009 8.46033C18.4619 8.31133 18.2709 8.22033 18.0719 8.20033C17.8619 8.18933 17.6619 8.26033 17.5109 8.40033L13.0019 12.0003C12.4219 12.4813 11.5909 12.4813 11.0019 12.0003L6.50188 8.40033C6.19088 8.17033 5.76088 8.20033 5.50188 8.47033C5.23188 8.74033 5.20188 9.17033 5.43088 9.47033L5.56188 9.60033L10.1119 13.1503C10.6719 13.5903 11.3509 13.8303 12.0619 13.8303C12.7709 13.8303 13.4619 13.5903 14.0209 13.1503L18.5319 9.54033Z" fill="#FFBB00"/>
</svg>
