<svg width="155" height="52" viewBox="0 0 155 52" fill="none" xmlns="http://www.w3.org/2000/svg">
<path d="M48.6321 28.3351L48.6024 26.1778L46.4449 26.1778L31.2086 26.1778L29.6243 26.1778L29.1302 27.6832L27.8016 31.731L27.2648 31.732L30.9678 20.5271L31.408 20.5271L30.6546 23.1662L29.8586 25.9542L32.758 25.9542L46.5781 25.9542L48.7952 25.9542L48.7654 23.7373L48.6322 13.8197L48.6134 12.4206L47.3353 11.851L27.4787 3.00194L27.0536 2.81251L26.5883 2.81251L25.2556 2.81251L24.7987 2.81251L24.3799 2.99544L4.12353 11.8445L2.81173 12.4176L2.81173 13.8491L2.81173 23.7667L2.81173 25.9542L4.99923 25.9542L19.5882 25.9542L21.1242 25.9542L21.6457 24.5095L23.0609 20.5891L23.1435 20.5891L21.291 26.1778L18.4261 26.1778L4.99923 26.1778L2.81173 26.1778L2.81173 28.3653L2.81173 38.1509L2.81173 39.5824L4.12353 40.1555L24.3799 49.0046L24.7987 49.1875L25.2556 49.1875L26.5883 49.1875L27.0571 49.1875L27.4847 48.9954L47.4746 40.0142L48.7853 39.4254L48.7654 37.9887L48.6321 28.3351Z" stroke="#FFB94A" stroke-width="4.375"/>
<path d="M72.2739 15.7119V34.0352H68.5111V15.7119H72.2739ZM77.9118 15.7119V18.6693H62.9613V15.7119H77.9118ZM88.4578 15.7119V34.0352H84.6949V15.7119H88.4578ZM94.0957 15.7119V18.6693H79.1451V15.7119H94.0957ZM114.281 31.0904V34.0352H104.528V31.0904H114.281ZM105.762 15.7119V34.0352H101.986V15.7119H105.762ZM113.01 23.1746V26.0439H104.528V23.1746H113.01ZM114.269 15.7119V18.6693H104.528V15.7119H114.269ZM128.263 31.0904V34.0352H119.038V31.0904H128.263ZM120.259 15.7119V34.0352H116.484V15.7119H120.259ZM136.053 34.0352H132.064L132.089 31.0904H136.053C137.043 31.0904 137.878 30.868 138.557 30.4234C139.237 29.9703 139.749 29.3117 140.093 28.4476C140.445 27.5834 140.621 26.5389 140.621 25.314V24.4205C140.621 23.4808 140.52 22.6545 140.319 21.9413C140.126 21.2282 139.837 20.6283 139.451 20.1417C139.065 19.6551 138.591 19.2902 138.029 19.0469C137.467 18.7952 136.821 18.6693 136.091 18.6693H131.988V15.7119H136.091C137.315 15.7119 138.436 15.9217 139.451 16.3412C140.474 16.7523 141.359 17.3437 142.106 18.1156C142.853 18.8875 143.427 19.8103 143.83 20.8842C144.241 21.9497 144.447 23.1369 144.447 24.4457V25.314C144.447 26.6144 144.241 27.8016 143.83 28.8755C143.427 29.9493 142.853 30.8722 142.106 31.6441C141.368 32.4075 140.483 32.999 139.451 33.4185C138.427 33.8296 137.295 34.0352 136.053 34.0352ZM134.203 15.7119V34.0352H130.428V15.7119H134.203Z" fill="white"/>
</svg>
